nColumns=28
nRows=54
DataType=double
version=3
OpenSimVersion=4.1
endheader
time	ground_force_1_vx	ground_force_1_vy	ground_force_1_vz	ground_force_1_px	ground_force_1_py	ground_force_1_pz	ground_force_1_mx	ground_force_1_my	ground_force_1_mz	ground_force_2_vx	ground_force_2_vy	ground_force_2_vz	ground_force_2_px	ground_force_2_py	ground_force_2_pz	ground_force_2_mx	ground_force_2_my	ground_force_2_mz	ground_force_3_vx	ground_force_3_vy	ground_force_3_vz	ground_force_3_px	ground_force_3_py	ground_force_3_pz	ground_force_3_mx	ground_force_3_my	ground_force_3_mz
2.22	0	0	0	0	0	0	0	0	0	-62.0099	51.586	12.2752	-0.042027	0.006	-0.665043	0	-6.07836	0	0	0	0	0	0	0	0	0	0
2.23	-128.828	155.927	-46.8711	-0.127644	0.006	-0.37402	0	1.7718	0	-259.661	337.598	54.1214	-0.103356	0.006	-0.740658	0	-4.17273	0	0	0	0	0	0	0	0	0	0
2.24	-284.949	458.014	-112.765	-0.152007	0.006	-0.373751	0	3.05513	0	-240.295	627.212	104.254	-0.150281	0.006	-0.742229	0	-4.467	0	0	0	0	0	0	0	0	0	0
2.25	-125.88	697.965	-105.504	-0.204665	0.006	-0.38882	0	2.2737	0	-49.0171	1154.16	112.651	-0.206541	0.006	-0.736634	0	1.67943	0	0	0	0	0	0	0	0	0	0
2.26	22.397	1063.99	-47.7708	-0.24695	0.006	-0.406463	0	-2.95261	0	-46.2616	1297.85	70.94	-0.217632	0.006	-0.733908	0	6.28376	0	0	0	0	0	0	0	0	0	0
2.27	-43.2809	944.356	-21.8241	-0.246064	0.006	-0.410989	0	-4.61498	0	-238.517	799.805	65.8473	-0.186834	0.006	-0.733151	0	4.54909	0	0	0	0	0	0	0	0	0	0
2.28	-223.98	559.339	-46.5893	-0.206985	0.006	-0.40549	0	-2.83589	0	-345.954	472.314	63.2456	-0.131641	0.006	-0.732652	0	-0.884734	0	0	0	0	0	0	0	0	0	0
2.29	-294.622	380.186	-44.3243	-0.164483	0.006	-0.40154	0	-1.80494	0	-339.932	400.953	39.9813	-0.113271	0.006	-0.728662	0	-1.51335	0	0	0	0	0	0	0	0	0	0
2.3	-270.253	372.239	-12.6723	-0.169378	0.006	-0.409203	0	-2.64729	0	-297.599	452.129	15.9126	-0.132197	0.006	-0.724557	0	1.20561	0	0	0	0	0	0	0	0	0	0
2.31	-205.659	444.81	-1.31613	-0.19698	0.006	-0.415587	0	-1.96427	0	-214.926	625.301	8.26036	-0.170848	0.006	-0.722911	0	3.64664	0	0	0	0	0	0	0	0	0	0
2.32	-132.579	568.976	-38.4059	-0.222456	0.006	-0.415409	0	-0.540521	0	-112.21	813.34	22.9031	-0.197536	0.006	-0.723868	0	4.05951	0	0	0	0	0	0	0	0	0	0
2.33	-72.9154	667.599	-58.8669	-0.236522	0.006	-0.416348	0	-0.661284	0	-68.3702	826.712	44.949	-0.203799	0.006	-0.725635	0	3.08774	0	0	0	0	0	0	0	0	0	0
2.34	-60.1912	669.128	-50.6622	-0.238781	0.006	-0.418323	0	-1.86074	0	-99.6858	719.844	51.5461	-0.19606	0.006	-0.727021	0	2.93113	0	0	0	0	0	0	0	0	0	0
2.35	-86.8535	611.908	-44.0981	-0.233228	0.006	-0.419115	0	-2.78418	0	-135.594	633.24	45.2039	-0.185752	0.006	-0.727536	0	3.8571	0	0	0	0	0	0	0	0	0	0
2.36	-103.865	565.834	-49.3328	-0.228044	0.006	-0.418915	0	-2.9926	0	-138.51	594.066	45.9869	-0.181261	0.006	-0.728122	0	4.54295	0	0	0	0	0	0	0	0	0	0
2.37	-95.4317	558.005	-52.5236	-0.228187	0.006	-0.419561	0	-3.09708	0	-122.7	574.623	52.6403	-0.180837	0.006	-0.728625	0	4.92588	0	0	0	0	0	0	0	0	0	0
2.38	-79.6988	567.5	-48.1576	-0.230573	0.006	-0.421167	0	-3.64113	0	-107.57	570.713	52.3238	-0.181954	0.006	-0.727989	0	5.83601	0	0	0	0	0	0	0	0	0	0
2.39	-69.7209	570.325	-45.4749	-0.232065	0.006	-0.422212	0	-4.3571	0	-91.5008	586.62	44.5448	-0.185278	0.006	-0.726383	0	7.29339	0	0	0	0	0	0	0	0	0	0
2.4	-61.8312	569.611	-46.6704	-0.232941	0.006	-0.422332	0	-5.04636	0	-74.9532	600.471	37.9425	-0.188953	0.006	-0.724983	0	8.53531	0	0	0	0	0	0	0	0	0	0
2.41	-53.9838	572.835	-46.6007	-0.233787	0.006	-0.42207	0	-5.82903	0	-69.1084	595.322	37.552	-0.18998	0.006	-0.72454	0	9.23595	0	0	0	0	0	0	0	0	0	0
2.42	-47.9922	580.578	-47.3466	-0.234466	0.006	-0.42152	0	-6.62392	0	-72.1954	578.158	38.0067	-0.188829	0.006	-0.72448	0	9.64	0	0	0	0	0	0	0	0	0	0
2.43	-38.545	596.61	-51.0342	-0.235934	0.006	-0.420935	0	-7.0355	0	-73.8739	565.169	34.8046	-0.187733	0.006	-0.724264	0	10.1041	0	0	0	0	0	0	0	0	0	0
2.44	-22.5218	618.211	-54.4896	-0.238298	0.006	-0.420765	0	-7.06799	0	-71.3129	566.177	33.0802	-0.187693	0.006	-0.724491	0	10.4994	0	0	0	0	0	0	0	0	0	0
2.45	-9.42424	632.363	-56.062	-0.240102	0.006	-0.420853	0	-7.05799	0	-65.6161	577.729	38.4884	-0.188642	0.006	-0.72577	0	10.549	0	0	0	0	0	0	0	0	0	0
2.46	-2.97644	635.537	-56.7302	-0.24075	0.006	-0.42091	0	-7.07283	0	-57.4118	591.493	49.0148	-0.19008	0.006	-0.727521	0	10.2974	0	0	0	0	0	0	0	0	0	0
2.47	1.15831	634.249	-57.3103	-0.24087	0.006	-0.420865	0	-7.053	0	-48.401	604.334	58.3939	-0.191556	0.006	-0.729048	0	10.068	0	0	0	0	0	0	0	0	0	0
2.48	4.64489	633	-57.2191	-0.240698	0.006	-0.420856	0	-7.07659	0	-38.8322	614.265	62.4421	-0.192987	0.006	-0.729782	0	10.0684	0	0	0	0	0	0	0	0	0	0
2.49	7.94613	633.152	-56.049	-0.24035	0.006	-0.420948	0	-7.22107	0	-31.819	616.789	61.6846	-0.193872	0.006	-0.730003	0	10.2553	0	0	0	0	0	0	0	0	0	0
2.5	11.5204	631.486	-54.0954	-0.239986	0.006	-0.421158	0	-7.3152	0	-30.4963	609.182	59.1866	-0.193531	0.006	-0.730203	0	10.4539	0	0	0	0	0	0	0	0	0	0
2.51	14.2287	624.665	-52.1355	-0.239431	0.006	-0.421426	0	-7.24401	0	-31.4769	595.672	57.2842	-0.192502	0.006	-0.730241	0	10.6034	0	0	0	0	0	0	0	0	0	0
2.52	16.6876	612.94	-50.0694	-0.238866	0.006	-0.421852	0	-7.04933	0	-30.675	582.819	56.8235	-0.191594	0.006	-0.730156	0	10.5838	0	0	0	0	0	0	0	0	0	0
2.53	20.147	598.114	-47.9439	-0.238486	0.006	-0.42241	0	-6.71392	0	-26.5154	573.571	56.9769	-0.191375	0.006	-0.729892	0	10.4827	0	0	0	0	0	0	0	0	0	0
2.54	23.859	580.41	-46.4732	-0.237811	0.006	-0.42304	0	-6.24632	0	-19.7383	565.38	57.6111	-0.191504	0.006	-0.729638	0	10.2736	0	0	0	0	0	0	0	0	0	0
2.55	27.3025	559.174	-44.754	-0.236804	0.006	-0.423983	0	-5.81394	0	-13.3377	554.477	59.1179	-0.191696	0.006	-0.729438	0	9.95497	0	0	0	0	0	0	0	0	0	0
2.56	29.7384	536.545	-43.0434	-0.235654	0.006	-0.424835	0	-5.52031	0	-8.92652	540.665	61.1217	-0.191763	0.006	-0.729267	0	9.5814	0	0	0	0	0	0	0	0	0	0
2.57	31.5872	514.331	-42.1254	-0.234709	0.006	-0.425504	0	-5.32647	0	-4.745	524.692	63.0308	-0.191806	0.006	-0.729174	0	9.25428	0	0	0	0	0	0	0	0	0	0
2.58	34.0858	493.584	-41.9807	-0.233966	0.006	-0.426098	0	-5.21622	0	0.776252	505.994	64.3151	-0.191851	0.006	-0.729078	0	8.98091	0	0	0	0	0	0	0	0	0	0
2.59	37.1924	474.971	-42.2007	-0.233122	0.006	-0.426468	0	-5.07069	0	8.13306	487.901	64.225	-0.191717	0.006	-0.728812	0	8.77851	0	0	0	0	0	0	0	0	0	0
2.6	40.3043	460.36	-42.6585	-0.231278	0.006	-0.426512	0	-4.97961	0	15.0242	473.721	62.4796	-0.190463	0.006	-0.728191	0	8.66249	0	0	0	0	0	0	0	0	0	0
2.61	39.6335	449.932	-43.7748	-0.226744	0.006	-0.425992	0	-4.94283	0	16.9312	463.017	60.5339	-0.187487	0.006	-0.727461	0	8.62147	0	0	0	0	0	0	0	0	0	0
2.62	34.2352	442.466	-45.5716	-0.219217	0.006	-0.424753	0	-4.88319	0	15.01	455.43	59.4033	-0.183405	0.006	-0.726706	0	8.63967	0	0	0	0	0	0	0	0	0	0
2.63	27.0621	439.431	-48.3031	-0.209442	0.006	-0.422582	0	-4.80673	0	12.2087	451.122	59.8413	-0.178304	0.006	-0.72624	0	8.56162	0	0	0	0	0	0	0	0	0	0
2.64	18.6028	438.216	-52.9256	-0.197949	0.006	-0.419652	0	-4.6249	0	6.73233	449.773	61.6636	-0.171354	0.006	-0.726011	0	8.31592	0	0	0	0	0	0	0	0	0	0
2.65	9.09063	435.302	-58.5535	-0.185599	0.006	-0.41628	0	-4.2686	0	-3.01546	449.704	63.1554	-0.163161	0.006	-0.725881	0	7.96285	0	0	0	0	0	0	0	0	0	0
2.66	1.1885	431.526	-63.159	-0.174354	0.006	-0.413195	0	-3.94963	0	-13.1207	451.037	63.3575	-0.155125	0.006	-0.725488	0	7.62764	0	0	0	0	0	0	0	0	0	0
2.67	-4.77617	428.259	-65.2618	-0.165166	0.006	-0.411105	0	-3.83441	0	-22.6659	456.532	63.8592	-0.148044	0.006	-0.725222	0	7.30126	0	0	0	0	0	0	0	0	0	0
2.68	-11.4263	424.694	-65.7646	-0.157609	0.006	-0.409834	0	-3.8375	0	-33.6591	464.985	65.5211	-0.14192	0.006	-0.725232	0	6.85409	0	0	0	0	0	0	0	0	0	0
2.69	-18.8486	422.439	-65.6596	-0.151768	0.006	-0.409158	0	-3.86187	0	-44.5457	474.519	67.0017	-0.136876	0.006	-0.725302	0	6.39739	0	0	0	0	0	0	0	0	0	0
2.7	-26.4101	424.714	-64.9813	-0.148105	0.006	-0.408886	0	-4.04283	0	-54.6047	485.822	67.9849	-0.133113	0.006	-0.72552	0	5.99309	0	0	0	0	0	0	0	0	0	0
2.71	-33.9777	432.392	-65.4731	-0.146356	0.006	-0.408743	0	-4.26314	0	-63.5132	499.482	69.5299	-0.130653	0.006	-0.726084	0	5.42865	0	0	0	0	0	0	0	0	0	0
2.72	-39.8073	447.627	-69.6114	-0.145978	0.006	-0.408019	0	-4.26671	0	-69.9662	515.073	73.056	-0.129223	0.006	-0.727136	0	4.55198	0	0	0	0	0	0	0	0	0	0
2.73	-43.9432	469.772	-78.7287	-0.14606	0.006	-0.406236	0	-3.76593	0	-73.9066	532.907	78.3914	-0.128454	0.006	-0.728527	0	3.53592	0	0	0	0	0	0	0	0	0	0
2.74	-48.5632	494.878	-90.4019	-0.145821	0.006	-0.403804	0	-2.80438	0	-77.3485	551.561	84.2459	-0.127611	0.006	-0.729898	0	2.47583	0	0	0	0	0	0	0	0	0	0
2.75	-54.3536	518.582	-100.002	-0.145096	0.006	-0.401348	0	-1.8758	0	-81.2037	567.421	87.9759	-0.126472	0.006	-0.730943	0	1.63604	0	0	0	0	0	0	0	0	0	0
